# xmcd
#
# Track frame offsets:
#	150
#	13224
#	29501
#	42603
#	59798
#	78615
#	92147
#	108801
#	125062
#	138932
#	157970
#	171729
#	185412
#	202731
#	217475
#	231254
#	248255
#	264660
#	279044
#	293666
#
# Disc length: 4106
#
# Revision: 1
# Processed by: cddbd v1.5.1PL0 Copyright (c) Steve Scherf et al.
# Submitted via: FreeRIP 2.80 
# Normalized: r0:DSETVAR1
#
DISCID=2c100814
DTITLE=Various Artist - Saloon Tunes 28
DYEAR=1900
DGENRE=country
TTITLE0=Aaron Tippin - Kiss This
TTITLE1=Alabama - We Made Love
TTITLE2=Alecia Elliot - You Wanna what
TTITLE3=Allsion Moorer - Send Down An Angel
TTITLE4=Billy Gilman - One Voice
TTITLE5=Chuck Wagon and The Wheels - Beauty's In The Eye Of The Beerholder
TTITLE6=Collin Raye - Loving The Way
TTITLE7=Darryl Worley - When You Need My Love
TTITLE8=Diamond Rio - Stuff
TTITLE9=Faith Hill and Tim McGraw - Let's Make Love
TTITLE10=Gary Allen - Right Where I Need To Be
TTITLE11=Jessica Andrews - I Do Now
TTITLE12=Lace - true Love
TTITLE13=Mark Chestnutt - Falling Never Felt So Good
TTITLE14=Steve Wariner - Katie Wants A Fast One
TTITLE15=The Wilkensons - Shame On Me
TTITLE16=Toby Keith - Country Comes To Town
TTITLE17=trisha Yearwood - Where You Are
TTITLE18=Anne Murray - Could I have This Dance
TTITLE19=terri Clark - Better Thins To Do
EXTD=
EXTT0=
EXTT1=
EXTT2=
EXTT3=
EXTT4=
EXTT5=
EXTT6=
EXTT7=
EXTT8=
EXTT9=
EXTT10=
EXTT11=
EXTT12=
EXTT13=
EXTT14=
EXTT15=
EXTT16=
EXTT17=
EXTT18=
EXTT19=
PLAYORDER=
